<svg id="visual" viewBox="0 0 900 675" width="900" height="675" xmlns="http://www.w3.org/2000/svg" xmlns:xlink="http://www.w3.org/1999/xlink" version="1.1"><path d="M0 285L21.5 291.7C43 298.3 86 311.7 128.8 336.3C171.7 361 214.3 397 257.2 392C300 387 343 341 385.8 341C428.7 341 471.3 387 514.2 391.8C557 396.7 600 360.3 642.8 358.2C685.7 356 728.3 388 771.2 382.5C814 377 857 334 878.5 312.5L900 291L900 676L878.5 676C857 676 814 676 771.2 676C728.3 676 685.7 676 642.8 676C600 676 557 676 514.2 676C471.3 676 428.7 676 385.8 676C343 676 300 676 257.2 676C214.3 676 171.7 676 128.8 676C86 676 43 676 21.5 676L0 676Z" fill="#ffab02"></path><path d="M0 360L21.5 376.8C43 393.7 86 427.3 128.8 434.3C171.7 441.3 214.3 421.7 257.2 411.5C300 401.3 343 400.7 385.8 403.3C428.7 406 471.3 412 514.2 415.5C557 419 600 420 642.8 429.7C685.7 439.3 728.3 457.7 771.2 451.3C814 445 857 414 878.5 398.5L900 383L900 676L878.5 676C857 676 814 676 771.2 676C728.3 676 685.7 676 642.8 676C600 676 557 676 514.2 676C471.3 676 428.7 676 385.8 676C343 676 300 676 257.2 676C214.3 676 171.7 676 128.8 676C86 676 43 676 21.5 676L0 676Z" fill="#ffb633"></path><path d="M0 496L21.5 496.2C43 496.3 86 496.7 128.8 499.7C171.7 502.7 214.3 508.3 257.2 508.5C300 508.7 343 503.3 385.8 489.5C428.7 475.7 471.3 453.3 514.2 446C557 438.7 600 446.3 642.8 448.2C685.7 450 728.3 446 771.2 446.7C814 447.3 857 452.7 878.5 455.3L900 458L900 676L878.5 676C857 676 814 676 771.2 676C728.3 676 685.7 676 642.8 676C600 676 557 676 514.2 676C471.3 676 428.7 676 385.8 676C343 676 300 676 257.2 676C214.3 676 171.7 676 128.8 676C86 676 43 676 21.5 676L0 676Z" fill="#ffc150"></path><path d="M0 505L21.5 502.8C43 500.7 86 496.3 128.8 505.5C171.7 514.7 214.3 537.3 257.2 545.2C300 553 343 546 385.8 535.8C428.7 525.7 471.3 512.3 514.2 505.8C557 499.3 600 499.7 642.8 513C685.7 526.3 728.3 552.7 771.2 566.8C814 581 857 583 878.5 584L900 585L900 676L878.5 676C857 676 814 676 771.2 676C728.3 676 685.7 676 642.8 676C600 676 557 676 514.2 676C471.3 676 428.7 676 385.8 676C343 676 300 676 257.2 676C214.3 676 171.7 676 128.8 676C86 676 43 676 21.5 676L0 676Z" fill="#ffcb69"></path><path d="M0 617L21.5 610.8C43 604.7 86 592.3 128.8 584.8C171.7 577.3 214.3 574.7 257.2 579.7C300 584.7 343 597.3 385.8 600C428.7 602.7 471.3 595.3 514.2 594.7C557 594 600 600 642.8 603.3C685.7 606.7 728.3 607.3 771.2 603.7C814 600 857 592 878.5 588L900 584L900 676L878.5 676C857 676 814 676 771.2 676C728.3 676 685.7 676 642.8 676C600 676 557 676 514.2 676C471.3 676 428.7 676 385.8 676C343 676 300 676 257.2 676C214.3 676 171.7 676 128.8 676C86 676 43 676 21.5 676L0 676Z" fill="#ffd582"></path></svg>